<svg xmlns="http://www.w3.org/2000/svg" aria-hidden="true" role="img" class="iconify iconify--logos" viewBox="72 190 48 60" preserveAspectRatio="xMidYMid slice">
    <path id="path26" style="display:inline;fill:#2992db;fill-opacity:1;fill-rule:evenodd;stroke:none;stroke-width:0.1;stroke-linejoin:round;paint-order:stroke fill markers"
        d="m 89.113046,195.17069 c -0.73339,0.25703 -0.248381,0.97612 0.131834,1.54906 0.05647,0.0851 0.146624,0.22414 0.202153,0.31004 l 1.751762,2.70993 a 0.29929653,0.29929653 88.870147 0 1 0.0062,0.31492 L 80.315281,218.4536 a 0.36629037,0.36629037 147.44252 0 1 -0.278615,0.17789 l -1.442697,0.14488 a 0.20473995,0.20473995 132.13258 0 0 -0.184281,0.20372 v 5.47057 a 0.18520833,0.18520833 45 0 0 0.185208,0.18521 h 1.440843 6.043042 a 0.33258949,0.33258949 150.88798 0 0 0.282739,-0.15745 l 9.876157,-15.94354 a 0.05271598,0.05271598 15.887981 0 1 0.09753,0.0278 v 13.41582 a 0.55942748,0.55942748 108.31804 0 1 -0.110519,0.33383 l -4.508389,6.06257 a 0.36853474,0.36853474 153.31804 0 1 -0.295727,0.14862 H 73.575044 a 0.18520833,0.18520833 135 0 0 -0.185208,0.18521 v 8.70397 a 0.18520833,0.18520833 45 0 0 0.185208,0.18521 h 6.460692 a 0.44708212,0.44708212 157.49772 0 0 0.31616,-0.13097 l 3.022133,-3.02262 a 0.44708212,0.44708212 157.49772 0 1 0.31616,-0.13097 h 7.730381 a 0.37579779,0.37579779 153.76406 0 0 0.298028,-0.14688 l 5.994652,-7.80445 a 0.37579779,0.37579779 153.76406 0 1 0.298028,-0.14688 h 2.429932 a 0.18520833,0.18520833 135 0 0 0.18521,-0.18521 l 0,-30.72226 a 0.18520833,0.18520833 45 0 0 -0.18521,-0.18521 H 89.476916 c -0.102287,0 -0.267412,0.0145 -0.36387,0.0483 z m -3.424566,42.14588 -2.689065,2.94487 c -0.06897,0.0755 -0.04338,0.15202 0.05713,0.17102 10.906538,2.06138 12.067035,3.96034 12.07661,18.50867 6.7e-5,0.10225 0.08298,0.18514 0.185268,0.18514 h 2.490391 a 0.18520833,0.18520833 135 0 0 0.185208,-0.18521 l 0,-21.57605 A 0.18520833,0.18520833 45 0 0 97.808811,237.1798 H 85.998575 a 0.41992608,0.41992608 156.20013 0 0 -0.310095,0.13677 z"
    />
</svg>